# xmcd CD database file
#
# Track frame offsets:
#	150
#	20570
#	48096
#	80802
#	110546
#	141015
#	174073
#	198592
#
# Disc length: 3005 seconds
#
# Revision: 0
# Processed by: cddbd v1.5.2PL0 Copyright (c) Steve Scherf et al.
# Submitted via: CDex 1.70beta2
#
DISCID=630bbb08
DTITLE=Andy Hunter  Johan H￶rlen - Confluence
DYEAR=2015
DGENRE=Jazz
TTITLE0=Confluence
TTITLE1=Shanti By The Creek
TTITLE2=Johnny Harlem
TTITLE3=Adriana
TTITLE4=Inner Urge
TTITLE5=Warm Canto
TTITLE6=Just Say When
TTITLE7=Canoe
EXTD=YEAR: 2015
EXTT0=
EXTT1=
EXTT2=
EXTT3=
EXTT4=
EXTT5=
EXTT6=
EXTT7=
PLAYORDER=
